<?xml version="1.0" encoding="iso-8859-1"?>
<!-- Generator: Adobe Illustrator 19.0.0, SVG Export Plug-In . SVG Version: 6.00 Build 0)  -->
<svg version="1.1" id="Capa_1" xmlns="http://www.w3.org/2000/svg" xmlns:xlink="http://www.w3.org/1999/xlink" x="0px" y="0px"
	 viewBox="0 0 512 512" style="enable-background:new 0 0 512 512;" xml:space="preserve">
<path style="fill:#7A463D;" d="M380,328c-4.418,0-8-3.582-8-8v-88c0-4.418,3.582-8,8-8s8,3.582,8,8v88
	C388,324.418,384.418,328,380,328z"/>
<path style="fill:#55D4BE;" d="M380,0c-66.168,0-120,53.832-120,120s53.832,120,120,120s120-53.832,120-120S446.168,0,380,0z"/>
<path style="fill:#24BFB2;" d="M380,24c-52.934,0-96,43.066-96,96s43.066,96,96,96s96-43.066,96-96S432.934,24,380,24z"/>
<path style="fill:#E4DAD8;" d="M380,32c-48.523,0-88,39.477-88,88s39.477,88,88,88s88-39.477,88-88S428.523,32,380,32z"/>
<path style="fill:#F2EDEC;" d="M380,48c-39.701,0-72,32.299-72,72s32.299,72,72,72s72-32.299,72-72S419.701,48,380,48z"/>
<path style="fill:#F56C6C;" d="M424.116,89.14l-40-24c-2.533-1.52-5.699-1.52-8.232,0l-40,24C333.475,90.586,332,93.189,332,96v64
	c0,4.418,3.582,8,8,8h16c4.418,0,8-3.582,8-8v-32h32v32c0,4.418,3.582,8,8,8h16c4.418,0,8-3.582,8-8V96
	C428,93.189,426.525,90.586,424.116,89.14z"/>
<path style="fill:#E4DAD8;" d="M443.729,437.938l-25.665-96.245C413.401,324.21,397.508,312,379.415,312h-270.83
	c-18.093,0-33.986,12.21-38.649,29.693l-25.665,96.245c-0.641,2.401-0.129,4.965,1.386,6.936C47.17,446.845,49.515,448,52,448h384
	c2.485,0,4.83-1.155,6.344-3.126C443.858,442.903,444.37,440.34,443.729,437.938z"/>
<path style="fill:#D7C8C5;" d="M69.656,444.874c-1.515-1.971-2.026-4.534-1.386-6.936l25.665-96.245
	C98.599,324.21,114.492,312,132.585,312h-24c-18.093,0-33.986,12.21-38.649,29.693l-25.665,96.245
	c-0.641,2.401-0.129,4.965,1.386,6.936C47.17,446.845,49.515,448,52,448h24C73.515,448,71.17,446.845,69.656,444.874z"/>
<path style="fill:#885951;" d="M450.997,436.122c-1.41-2.544-4.089-4.122-6.997-4.122H44c-2.908,0-5.587,1.578-6.997,4.122
	c-1.41,2.543-1.328,5.651,0.213,8.118l30.6,48.96c7.357,11.771,20.038,18.8,33.921,18.8h284.527c13.883,0,26.563-7.028,33.921-18.8
	l30.6-48.96C452.325,441.773,452.407,438.665,450.997,436.122z"/>
<path style="fill:#7A463D;" d="M91.815,493.2l-30.6-48.96c-1.541-2.467-1.623-5.575-0.213-8.118C62.413,433.578,65.092,432,68,432
	H44c-2.908,0-5.587,1.578-6.997,4.122c-1.41,2.543-1.328,5.651,0.213,8.118l30.6,48.96c7.357,11.771,20.038,18.8,33.921,18.8h24
	C111.854,512,99.173,504.972,91.815,493.2z"/>
<path style="fill:#E4DAD8;" d="M290.306,435.077C288.79,433.135,286.464,432,284,432h-80c-2.464,0-4.79,1.135-6.306,3.077
	c-1.516,1.941-2.053,4.474-1.455,6.863l8,32c0.89,3.562,4.09,6.06,7.761,6.06h64c3.671,0,6.871-2.498,7.761-6.06l8-32
	C292.358,439.551,291.821,437.019,290.306,435.077z"/>
<path style="fill:#F2EDEC;" d="M468,400H20c-4.418,0-8,3.582-8,8v24c0,4.418,3.582,8,8,8h448c4.418,0,8-3.582,8-8v-24
	C476,403.582,472.418,400,468,400z"/>
<path style="fill:#E4DAD8;" d="M36,432v-24c0-4.418,3.582-8,8-8H20c-4.418,0-8,3.582-8,8v24c0,4.418,3.582,8,8,8h24
	C39.582,440,36,436.418,36,432z"/>
<g>
	<path style="fill:#CAB5B1;" d="M244,304c-6.996,0-10.582-8.731-5.657-13.657c3.092-3.091,6.664-7.471,6.123-10.777
		c-0.418-2.557-3.008-5.528-5.749-8.674c-6.009-6.896-17.193-19.729-0.374-36.549c3.125-3.123,8.189-3.123,11.314,0
		c3.124,3.125,3.124,8.189,0,11.314c-6.257,6.256-5.13,7.549,1.122,14.722c6.534,7.499,18.698,21.457-1.122,41.278
		C248.095,303.219,246.048,304,244,304z"/>
	<path style="fill:#CAB5B1;" d="M307.473,304c-6.996,0-10.582-8.731-5.657-13.657c3.092-3.091,6.664-7.471,6.123-10.777
		c-0.418-2.557-3.008-5.528-5.749-8.674c-6.009-6.896-17.193-19.729-0.374-36.549c3.125-3.123,8.189-3.123,11.314,0
		c3.124,3.125,3.124,8.189,0,11.314c-6.257,6.256-5.13,7.549,1.122,14.722c6.534,7.499,18.698,21.457-1.122,41.278
		C311.567,303.219,309.521,304,307.473,304z"/>
	<path style="fill:#CAB5B1;" d="M179.473,304c-6.996,0-10.582-8.731-5.657-13.657c3.092-3.091,6.664-7.471,6.123-10.777
		c-0.418-2.557-3.008-5.528-5.749-8.674c-6.009-6.896-17.193-19.729-0.374-36.549c3.125-3.123,8.189-3.123,11.314,0
		c3.124,3.125,3.124,8.189,0,11.314c-6.257,6.256-5.13,7.549,1.122,14.722c6.534,7.499,18.698,21.457-1.122,41.278
		C183.567,303.219,181.521,304,179.473,304z"/>
</g>
<g>
</g>
<g>
</g>
<g>
</g>
<g>
</g>
<g>
</g>
<g>
</g>
<g>
</g>
<g>
</g>
<g>
</g>
<g>
</g>
<g>
</g>
<g>
</g>
<g>
</g>
<g>
</g>
<g>
</g>
</svg>
